<?xml version="1.0" encoding="UTF-8"?>
<!DOCTYPE svg PUBLIC "-//W3C//DTD SVG 1.1//EN" "http://www.w3.org/Graphics/SVG/1.1/DTD/svg11.dtd">
<svg xmlns="http://www.w3.org/2000/svg" version="1.1" width="512px" height="512px" style="shape-rendering:geometricPrecision; text-rendering:geometricPrecision; image-rendering:optimizeQuality; fill-rule:evenodd; clip-rule:evenodd" xmlns:xlink="http://www.w3.org/1999/xlink">
<g><path style="opacity:0.985" fill="#000000" d="M 69.5,31.5 C 95.7095,28.7676 114.376,39.2676 125.5,63C 138.833,63.3333 152.167,63.6667 165.5,64C 170,65.8333 173.167,69 175,73.5C 175.5,91.4969 175.667,109.497 175.5,127.5C 191.5,127.5 207.5,127.5 223.5,127.5C 223.5,138.167 223.5,148.833 223.5,159.5C 200.164,159.667 176.831,159.5 153.5,159C 149,157.167 145.833,154 144,149.5C 143.5,131.503 143.333,113.503 143.5,95.5C 137.491,95.3338 131.491,95.5005 125.5,96C 111.569,123.986 89.5694,133.319 59.5,124C 33.8264,109.329 25.6598,87.8295 35,59.5C 42.2455,44.739 53.7455,35.4056 69.5,31.5 Z"/></g>
<g><path style="opacity:0.987" fill="#000000" d="M 291.5,31.5 C 331.501,31.3333 371.501,31.5 411.5,32C 439.307,38.4732 456.473,55.6399 463,83.5C 463.667,102.167 463.667,120.833 463,139.5C 456.383,167.784 438.883,184.951 410.5,191C 396.171,191.5 381.837,191.667 367.5,191.5C 367.5,196.833 367.5,202.167 367.5,207.5C 420.609,209.786 456.442,235.786 475,285.5C 476.717,291.752 478.05,298.086 479,304.5C 479.667,338.833 479.667,373.167 479,407.5C 475.833,420 468,427.833 455.5,431C 386.167,431.667 316.833,431.667 247.5,431C 235,427.833 227.167,420 224,407.5C 223.333,373.167 223.333,338.833 224,304.5C 232.649,255.033 261.149,223.533 309.5,210C 318.053,207.996 326.719,207.163 335.5,207.5C 335.5,202.167 335.5,196.833 335.5,191.5C 321.163,191.667 306.829,191.5 292.5,191C 264.09,184.924 246.59,167.757 240,139.5C 239.333,120.833 239.333,102.167 240,83.5C 246.681,55.6527 263.848,38.3193 291.5,31.5 Z M 304.5,64.5 C 318.981,62.3182 328.814,67.9849 334,81.5C 336.366,95.6057 330.866,105.106 317.5,110C 303.394,112.366 293.894,106.866 289,93.5C 286.831,79.8339 291.998,70.1672 304.5,64.5 Z M 384.5,64.5 C 398.981,62.3182 408.814,67.9849 414,81.5C 416.366,95.6057 410.866,105.106 397.5,110C 383.394,112.366 373.894,106.866 369,93.5C 366.831,79.8339 371.998,70.1672 384.5,64.5 Z M 327.5,143.5 C 343.503,143.333 359.503,143.5 375.5,144C 382.592,146.159 384.258,150.493 380.5,157C 378.913,157.862 377.246,158.529 375.5,159C 359.5,159.667 343.5,159.667 327.5,159C 320.653,157.134 318.82,152.968 322,146.5C 323.876,145.391 325.709,144.391 327.5,143.5 Z M 344.5,240.5 C 373.274,240.106 385.441,254.106 381,282.5C 372.619,299.604 359.119,305.771 340.5,301C 320.665,290.519 315.498,275.019 325,254.5C 330.012,247.639 336.512,242.972 344.5,240.5 Z M 287.5,335.5 C 331.872,335.026 376.206,335.526 420.5,337C 429.321,341.811 432.988,349.311 431.5,359.5C 432.342,367.511 430.009,374.344 424.5,380C 421.754,381.75 418.754,382.75 415.5,383C 371.129,383.974 326.795,383.64 282.5,382C 278,380.167 274.833,377 273,372.5C 270.516,362.239 271.183,352.239 275,342.5C 278.464,338.69 282.631,336.356 287.5,335.5 Z"/></g>
<g><path style="opacity:0.985" fill="#000000" d="M 69.5,143.5 C 95.7095,140.768 114.376,151.268 125.5,175C 158.165,175.5 190.832,175.667 223.5,175.5C 223.5,186.167 223.5,196.833 223.5,207.5C 190.832,207.333 158.165,207.5 125.5,208C 111.569,235.986 89.5694,245.319 59.5,236C 33.8264,221.329 25.6598,199.829 35,171.5C 42.2455,156.739 53.7455,147.406 69.5,143.5 Z"/></g>
<g><path style="opacity:0.985" fill="#000000" d="M 153.5,223.5 C 176.833,223.5 200.167,223.5 223.5,223.5C 223.5,234.167 223.5,244.833 223.5,255.5C 207.5,255.5 191.5,255.5 175.5,255.5C 175.667,273.503 175.5,291.503 175,309.5C 173.167,314 170,317.167 165.5,319C 152.167,319.333 138.833,319.667 125.5,320C 111.569,347.986 89.5694,357.319 59.5,348C 33.8264,333.329 25.6598,311.829 35,283.5C 50.4111,257.027 72.5777,249.194 101.5,260C 112.669,266.17 120.669,275.17 125.5,287C 131.491,287.499 137.491,287.666 143.5,287.5C 143.333,269.497 143.5,251.497 144,233.5C 146.022,228.98 149.189,225.647 153.5,223.5 Z"/></g>
<g><path style="opacity:0.937" fill="#000000" d="M 345.5,255.5 C 364.778,254.61 371.278,263.276 365,281.5C 358.055,288.069 350.222,289.236 341.5,285C 334.931,278.055 333.764,270.222 338,261.5C 340.114,258.879 342.614,256.879 345.5,255.5 Z"/></g>
<g><path style="opacity:1" fill="#000000" d="M 287.5,351.5 C 330.167,351.5 372.833,351.5 415.5,351.5C 415.5,356.833 415.5,362.167 415.5,367.5C 372.833,367.5 330.167,367.5 287.5,367.5C 287.5,362.167 287.5,356.833 287.5,351.5 Z"/></g>
<g><path style="opacity:0.966" fill="#000000" d="M 255.5,447.5 C 276.833,447.5 298.167,447.5 319.5,447.5C 318.504,467.829 307.838,478.496 287.5,479.5C 267.162,478.496 256.496,467.829 255.5,447.5 Z"/></g>
<g><path style="opacity:0.966" fill="#000000" d="M 383.5,447.5 C 404.833,447.5 426.167,447.5 447.5,447.5C 446.504,467.829 435.838,478.496 415.5,479.5C 395.162,478.496 384.496,467.829 383.5,447.5 Z"/></g>
</svg>
