<?xml version="1.0" encoding="UTF-8"?>
<!DOCTYPE svg PUBLIC "-//W3C//DTD SVG 1.1//EN" "http://www.w3.org/Graphics/SVG/1.1/DTD/svg11.dtd">
<svg xmlns="http://www.w3.org/2000/svg" version="1.1" width="512px" height="512px" style="shape-rendering:geometricPrecision; text-rendering:geometricPrecision; image-rendering:optimizeQuality; fill-rule:evenodd; clip-rule:evenodd" xmlns:xlink="http://www.w3.org/1999/xlink">
<g><path style="opacity:0.968" fill="#000000" d="M 74.5,-0.5 C 78.5,-0.5 82.5,-0.5 86.5,-0.5C 90.4788,1.31481 93.3122,4.31481 95,8.5C 95.4996,15.4921 95.6663,22.4921 95.5,29.5C 85.5,29.5 75.5,29.5 65.5,29.5C 65.3337,22.4921 65.5004,15.4921 66,8.5C 67.6878,4.31481 70.5212,1.31481 74.5,-0.5 Z"/></g>
<g><path style="opacity:0.968" fill="#000000" d="M 170.5,-0.5 C 174.5,-0.5 178.5,-0.5 182.5,-0.5C 186.479,1.31481 189.312,4.31481 191,8.5C 191.5,15.4921 191.666,22.4921 191.5,29.5C 181.5,29.5 171.5,29.5 161.5,29.5C 161.334,22.4921 161.5,15.4921 162,8.5C 163.688,4.31481 166.521,1.31481 170.5,-0.5 Z"/></g>
<g><path style="opacity:0.968" fill="#000000" d="M 266.5,-0.5 C 270.5,-0.5 274.5,-0.5 278.5,-0.5C 282.479,1.31481 285.312,4.31481 287,8.5C 287.5,15.4921 287.666,22.4921 287.5,29.5C 277.5,29.5 267.5,29.5 257.5,29.5C 257.334,22.4921 257.5,15.4921 258,8.5C 259.688,4.31481 262.521,1.31481 266.5,-0.5 Z"/></g>
<g><path style="opacity:0.968" fill="#000000" d="M 362.5,-0.5 C 366.5,-0.5 370.5,-0.5 374.5,-0.5C 378.479,1.31481 381.312,4.31481 383,8.5C 383.5,15.4921 383.666,22.4921 383.5,29.5C 373.5,29.5 363.5,29.5 353.5,29.5C 353.334,22.4921 353.5,15.4921 354,8.5C 355.688,4.31481 358.521,1.31481 362.5,-0.5 Z"/></g>
<g><path style="opacity:0.994" fill="#000000" d="M 65.5,29.5 C 65.075,46.215 65.575,62.8817 67,79.5C 73.1633,89.4572 81.1633,91.1239 91,84.5C 92,82.8333 93,81.1667 94,79.5C 95.425,62.8817 95.925,46.215 95.5,29.5C 117.5,29.5 139.5,29.5 161.5,29.5C 161.075,46.215 161.575,62.8817 163,79.5C 169.163,89.4572 177.163,91.1239 187,84.5C 188,82.8333 189,81.1667 190,79.5C 191.425,62.8817 191.925,46.215 191.5,29.5C 213.5,29.5 235.5,29.5 257.5,29.5C 257.075,46.215 257.575,62.8817 259,79.5C 265.163,89.4572 273.163,91.1239 283,84.5C 284,82.8333 285,81.1667 286,79.5C 287.425,62.8817 287.925,46.215 287.5,29.5C 309.5,29.5 331.5,29.5 353.5,29.5C 353.075,46.215 353.575,62.8817 355,79.5C 361.163,89.4572 369.163,91.1239 379,84.5C 380,82.8333 381,81.1667 382,79.5C 383.425,62.8817 383.925,46.215 383.5,29.5C 417.629,26.1625 439.462,40.8292 449,73.5C 449.5,92.1637 449.667,110.83 449.5,129.5C 299.5,129.5 149.5,129.5 -0.5,129.5C -0.5,110.833 -0.5,92.1667 -0.5,73.5C 9.61608,41.4178 31.6161,26.7511 65.5,29.5 Z M 65.5,29.5 C 75.5,29.5 85.5,29.5 95.5,29.5C 95.925,46.215 95.425,62.8817 94,79.5C 93,81.1667 92,82.8333 91,84.5C 81.1633,91.1239 73.1633,89.4572 67,79.5C 65.575,62.8817 65.075,46.215 65.5,29.5 Z M 161.5,29.5 C 171.5,29.5 181.5,29.5 191.5,29.5C 191.925,46.215 191.425,62.8817 190,79.5C 189,81.1667 188,82.8333 187,84.5C 177.163,91.1239 169.163,89.4572 163,79.5C 161.575,62.8817 161.075,46.215 161.5,29.5 Z M 257.5,29.5 C 267.5,29.5 277.5,29.5 287.5,29.5C 287.925,46.215 287.425,62.8817 286,79.5C 285,81.1667 284,82.8333 283,84.5C 273.163,91.1239 265.163,89.4572 259,79.5C 257.575,62.8817 257.075,46.215 257.5,29.5 Z M 353.5,29.5 C 363.5,29.5 373.5,29.5 383.5,29.5C 383.925,46.215 383.425,62.8817 382,79.5C 381,81.1667 380,82.8333 379,84.5C 369.163,91.1239 361.163,89.4572 355,79.5C 353.575,62.8817 353.075,46.215 353.5,29.5 Z"/></g>
<g><path style="opacity:0.99" fill="#000000" d="M -0.5,159.5 C 149.5,159.5 299.5,159.5 449.5,159.5C 449.833,196.506 449.5,233.506 448.5,270.5C 388.115,251.805 336.615,265.805 294,312.5C 266.801,346.962 256.968,385.962 264.5,429.5C 187.833,429.667 111.166,429.5 34.5,429C 16.3096,423.975 4.64294,412.475 -0.5,394.5C -0.5,316.167 -0.5,237.833 -0.5,159.5 Z M 164.5,212.5 C 174.839,212.334 185.172,212.5 195.5,213C 206.294,217.43 209.128,224.93 204,235.5C 201.9,238.467 199.066,240.3 195.5,241C 185.167,241.667 174.833,241.667 164.5,241C 155.699,237.904 152.199,231.737 154,222.5C 156.106,217.557 159.606,214.224 164.5,212.5 Z M 253.5,212.5 C 263.839,212.334 274.172,212.5 284.5,213C 295.294,217.43 298.128,224.93 293,235.5C 290.9,238.467 288.066,240.3 284.5,241C 274.167,241.667 263.833,241.667 253.5,241C 244.699,237.904 241.199,231.737 243,222.5C 245.106,217.557 248.606,214.224 253.5,212.5 Z M 342.5,212.5 C 352.839,212.334 363.172,212.5 373.5,213C 384.294,217.43 387.128,224.93 382,235.5C 379.9,238.467 377.066,240.3 373.5,241C 363.167,241.667 352.833,241.667 342.5,241C 333.699,237.904 330.199,231.737 332,222.5C 334.106,217.557 337.606,214.224 342.5,212.5 Z M 78.5,279.5 C 86.84,279.334 95.1733,279.5 103.5,280C 115.63,282.475 119.796,289.642 116,301.5C 113.113,306.039 108.947,308.539 103.5,309C 95.1667,309.667 86.8333,309.667 78.5,309C 67.7097,306.933 63.2097,300.433 65,289.5C 67.9825,284.005 72.4825,280.671 78.5,279.5 Z M 167.5,279.5 C 175.84,279.334 184.173,279.5 192.5,280C 204.63,282.475 208.796,289.642 205,301.5C 202.113,306.039 197.947,308.539 192.5,309C 184.167,309.667 175.833,309.667 167.5,309C 156.71,306.933 152.21,300.433 154,289.5C 156.982,284.005 161.482,280.671 167.5,279.5 Z M 256.5,279.5 C 264.84,279.334 273.173,279.5 281.5,280C 293.63,282.475 297.796,289.642 294,301.5C 291.113,306.039 286.947,308.539 281.5,309C 273.167,309.667 264.833,309.667 256.5,309C 245.71,306.933 241.21,300.433 243,289.5C 245.982,284.005 250.482,280.671 256.5,279.5 Z M 75.5,347.5 C 85.8387,347.334 96.172,347.5 106.5,348C 117.294,352.43 120.128,359.93 115,370.5C 112.9,373.467 110.066,375.3 106.5,376C 96.1667,376.667 85.8333,376.667 75.5,376C 66.6994,372.904 63.1994,366.737 65,357.5C 67.1059,352.557 70.6059,349.224 75.5,347.5 Z M 164.5,347.5 C 174.839,347.334 185.172,347.5 195.5,348C 206.294,352.43 209.128,359.93 204,370.5C 201.9,373.467 199.066,375.3 195.5,376C 185.167,376.667 174.833,376.667 164.5,376C 155.699,372.904 152.199,366.737 154,357.5C 156.106,352.557 159.606,349.224 164.5,347.5 Z"/></g>
<g><path style="opacity:0.986" fill="#000000" d="M 511.5,386.5 C 511.5,396.5 511.5,406.5 511.5,416.5C 500.833,469.167 469.167,500.833 416.5,511.5C 406.5,511.5 396.5,511.5 386.5,511.5C 333.846,501.013 302.346,469.346 292,416.5C 287.806,369.73 304.973,333.23 343.5,307C 375.608,289.395 408.941,286.728 443.5,299C 481.666,316.185 504.333,345.351 511.5,386.5 Z M 396.5,337.5 C 405.051,335.86 411.218,338.86 415,346.5C 416.403,359.782 416.903,373.115 416.5,386.5C 429.885,386.097 443.218,386.597 456.5,388C 466.246,393.865 468.08,401.699 462,411.5C 460.167,412.667 458.333,413.833 456.5,415C 438.211,416.599 419.878,416.932 401.5,416C 392.667,415.167 387.833,410.333 387,401.5C 386.333,384.833 386.333,368.167 387,351.5C 387.466,344.874 390.633,340.208 396.5,337.5 Z"/></g>
</svg>
